# xmcd
#
# Track frame offsets:
#	183
#	14923
#	42318
#	56098
#	68700
#	84870
#	107648
#	116400
#	136975
#	148190
#	166095
#	191228
#	209883
#	225335
#	245478
#	262963
#
# Disc length: 3867 seconds
#
# Revision: 2
# Processed by: cddbd v1.5.2PL0 Copyright (c) Steve Scherf et al.
# Submitted via: audiograbber 1.83.01
#
DISCID=e70f1910
DTITLE=First Class Blues Band - First Class Blues
DYEAR=1993
DGENRE=Blues
TTITLE0=First Class Shuffle
TTITLE1=Little Bluebird
TTITLE2=Crazy 'bout You
TTITLE3=Saturday Morning Jump
TTITLE4=Early In The Morning
TTITLE5=Vicksburg Blues
TTITLE6=Vintage Shuffle
TTITLE7=Don't Let The Green Grass Fool You
TTITLE8=Honey Boy
TTITLE9=Standing On Shakey Ground
TTITLE10=M.C. Blues
TTITLE11=Confessin' The Blues
TTITLE12=Spend It While You Can
TTITLE13=Kevin's Groove
TTITLE14=Evening News
TTITLE15=Georgia
EXTD=The First Class Blues Band:\nChristian Rannenberg - piano, vocals\nThomas 
EXTD=Feldmann - saxophone, harmonica\nJan Hirte - guitar, backup vocals\nKevin 
EXTD=DuVernay - Shipman - bass, vocals\nTommie Harris - drums, vocals\nspecial 
EXTD=guests:\nKaren Carroll - vocals\nBig Jay McNeely - saxophone
EXTT0=(Rannenberg]\nsax solo: Big Jay McNeely
EXTT1=(Hayes/Porter]\nvocals: Karen Carroll
EXTT2=(DuVernay]\nvocals: Kevin DuVernay
EXTT3=(Hirte]\nsax solo: Thomas Feldmann
EXTT4=(Jordan]\nvocals: Tommie Harris
EXTT5=(Montgomery]\nvocals: Karen Carroll
EXTT6=(Feldmann]\n
EXTT7=(Akinen/Bellmon/Drayton/Turner]\nvocals: Christian Rannenberg\nsax solo: 
EXTT7=Big Jay McNeely
EXTT8=(Butler]\n
EXTT9=(Bowen/Hazel/Boyd]\nvocals: Karen Carroll
EXTT10=(Rannenberg]\nsax solo: Thomas Feldmann
EXTT11=(McShann/Brown]\nvocals: Karen Carroll
EXTT12=(DuVernay]\nvocals: Kevin DuVernay\nsax solo: Big Jay McNeely
EXTT13=(DuVernay/Rannenberg]\n
EXTT14=(Harris]\nvocals: Tommie Harris
EXTT15=(Carmichael]\nsax solo: Big Jay McNeely
PLAYORDER=
